<svg width="434" height="250" viewBox="0 0 434 250" fill="none" xmlns="http://www.w3.org/2000/svg">
<rect width="434" height="250" fill="#070213"/>
<path d="M172.445 126.702L172.433 129.986C172.433 130.03 172.433 130.068 172.427 130.113C172.427 130.202 172.41 130.284 172.392 130.367C172.357 130.519 172.311 130.659 172.229 130.792C172.206 130.824 172.183 130.856 172.16 130.888C172.067 131.008 171.962 131.123 171.834 131.205C171.822 131.212 171.816 131.224 171.805 131.231C168.814 133.015 165.818 134.781 162.815 136.547L161.5 137.316C161.349 137.405 161.18 137.449 161.012 137.449C160.843 137.449 160.674 137.405 160.523 137.316L159.208 136.547C156.206 134.788 153.203 133.015 150.219 131.231C150.207 131.231 150.201 131.218 150.189 131.205C150.061 131.123 149.957 131.015 149.864 130.888C149.84 130.856 149.811 130.824 149.794 130.792C149.718 130.665 149.666 130.519 149.631 130.367C149.613 130.284 149.596 130.202 149.596 130.113C149.596 130.075 149.59 130.03 149.59 129.986V126.702H149.579V116.259C149.579 115.414 149.154 114.633 148.473 114.226L141.258 109.945C139.85 109.107 138.134 110.225 138.134 111.978V130.78C138.134 130.856 138.145 130.932 138.145 131.008C138.145 131.173 138.145 131.339 138.145 131.497C138.145 133.123 138.145 134.743 138.157 136.363C138.157 136.827 138.157 137.29 138.157 137.754C138.157 137.754 138.157 137.754 138.157 137.76C138.157 137.875 138.186 137.983 138.198 138.097C138.215 138.307 138.227 138.516 138.273 138.713C138.332 138.955 138.436 139.177 138.541 139.393C138.57 139.456 138.582 139.526 138.617 139.59C138.657 139.66 138.716 139.717 138.756 139.787C139.041 140.244 139.408 140.638 139.868 140.917C144.47 143.68 149.101 146.418 153.733 149.149C155.932 150.452 158.12 151.766 160.325 153.062C160.54 153.189 160.779 153.246 161.012 153.24C161.25 153.24 161.483 153.189 161.698 153.062C163.898 151.766 166.085 150.452 168.285 149.149C172.922 146.418 177.553 143.674 182.161 140.911C182.621 140.638 182.988 140.238 183.273 139.78C183.313 139.71 183.372 139.66 183.412 139.583C183.447 139.52 183.459 139.45 183.488 139.386C183.593 139.17 183.692 138.948 183.756 138.707C183.808 138.51 183.814 138.294 183.831 138.091C183.843 137.976 183.872 137.875 183.872 137.76C183.872 137.76 183.872 137.754 183.872 137.748C183.872 137.284 183.872 136.82 183.872 136.357C183.884 134.73 183.884 133.111 183.884 131.491C183.884 131.326 183.884 131.161 183.884 131.002C183.884 130.926 183.895 130.849 183.895 130.773V111.972C183.895 110.218 182.179 109.107 180.771 109.939L173.556 114.22C172.875 114.627 172.451 115.402 172.451 116.253V126.695" fill="white"/>
<path d="M138.646 104.94L148.287 110.46C149.09 110.917 150.05 110.282 150.05 109.297V98.3213C150.05 97.5972 149.509 97.0065 148.845 97.0065H139.204C138.541 97.0065 138 97.5972 138 98.3213V103.784C138 104.273 138.25 104.724 138.646 104.946V104.94Z" fill="white"/>
<path d="M182.796 97H173.155C172.491 97 171.95 97.5907 171.95 98.3148V109.875C171.95 110.873 172.933 111.508 173.731 111.031L183.372 105.277C183.756 105.048 184 104.603 184 104.121V98.3148C184 97.5907 183.459 97 182.796 97Z" fill="white"/>
<path d="M209.728 131V113.24H213.832V127.712H222.58V131H209.728ZM239.881 131.228C238.033 131.228 236.437 130.884 235.093 130.196C233.749 129.508 232.713 128.484 231.985 127.124C231.257 125.756 230.893 124.088 230.893 122.12C230.893 120.152 231.257 118.488 231.985 117.128C232.713 115.76 233.749 114.732 235.093 114.044C236.437 113.356 238.033 113.012 239.881 113.012C241.729 113.012 243.325 113.36 244.669 114.056C246.013 114.744 247.049 115.772 247.777 117.14C248.505 118.5 248.869 120.16 248.869 122.12C248.869 124.08 248.505 125.744 247.777 127.112C247.049 128.472 246.009 129.5 244.657 130.196C243.313 130.884 241.721 131.228 239.881 131.228ZM239.881 127.976C241.433 127.976 242.621 127.504 243.445 126.56C244.269 125.616 244.681 124.164 244.681 122.204C244.681 120.172 244.265 118.676 243.433 117.716C242.609 116.748 241.425 116.264 239.881 116.264C238.345 116.264 237.161 116.736 236.329 117.68C235.497 118.616 235.081 120.068 235.081 122.036C235.081 124.092 235.489 125.596 236.305 126.548C237.129 127.5 238.321 127.976 239.881 127.976ZM274.245 122.36V130.784C272.581 131.064 271.005 131.204 269.517 131.204C265.909 131.204 263.213 130.456 261.429 128.96C259.645 127.464 258.753 125.204 258.753 122.18C258.745 119.18 259.653 116.904 261.477 115.352C263.309 113.792 265.981 113.012 269.493 113.012C270.933 113.012 272.329 113.16 273.681 113.456V116.78C272.433 116.492 271.141 116.348 269.805 116.348C268.237 116.356 266.953 116.564 265.953 116.972C264.961 117.38 264.221 118.016 263.733 118.88C263.253 119.744 263.013 120.864 263.013 122.24C263.013 124.144 263.521 125.564 264.537 126.5C265.561 127.428 267.133 127.892 269.253 127.892C269.645 127.892 270.033 127.88 270.417 127.856V122.36H274.245ZM285.782 131V113.24H287.786V131H285.782ZM306.942 121.916L313.722 131H311.418L305.73 123.428L300.054 131H297.774L304.554 121.952L298.014 113.24H300.33L305.766 120.44L311.214 113.24H313.458L306.942 121.916Z" fill="white"/>
<path d="M213.586 135.902C213.538 135.986 213.486 136.048 213.43 136.088C213.378 136.124 213.312 136.142 213.232 136.142C213.148 136.142 213.056 136.112 212.956 136.052C212.86 135.988 212.744 135.918 212.608 135.842C212.472 135.766 212.312 135.698 212.128 135.638C211.948 135.574 211.734 135.542 211.486 135.542C211.262 135.542 211.066 135.57 210.898 135.626C210.73 135.678 210.588 135.752 210.472 135.848C210.36 135.944 210.276 136.06 210.22 136.196C210.164 136.328 210.136 136.474 210.136 136.634C210.136 136.838 210.192 137.008 210.304 137.144C210.42 137.28 210.572 137.396 210.76 137.492C210.948 137.588 211.162 137.674 211.402 137.75C211.642 137.826 211.888 137.908 212.14 137.996C212.392 138.08 212.638 138.18 212.878 138.296C213.118 138.408 213.332 138.552 213.52 138.728C213.708 138.9 213.858 139.112 213.97 139.364C214.086 139.616 214.144 139.922 214.144 140.282C214.144 140.674 214.076 141.042 213.94 141.386C213.808 141.726 213.612 142.024 213.352 142.28C213.096 142.532 212.782 142.732 212.41 142.88C212.038 143.024 211.612 143.096 211.132 143.096C210.856 143.096 210.584 143.068 210.316 143.012C210.048 142.96 209.79 142.884 209.542 142.784C209.298 142.684 209.068 142.564 208.852 142.424C208.636 142.284 208.444 142.128 208.276 141.956L208.75 141.182C208.79 141.126 208.842 141.08 208.906 141.044C208.97 141.004 209.038 140.984 209.11 140.984C209.21 140.984 209.318 141.026 209.434 141.11C209.55 141.19 209.688 141.28 209.848 141.38C210.008 141.48 210.194 141.572 210.406 141.656C210.622 141.736 210.88 141.776 211.18 141.776C211.64 141.776 211.996 141.668 212.248 141.452C212.5 141.232 212.626 140.918 212.626 140.51C212.626 140.282 212.568 140.096 212.452 139.952C212.34 139.808 212.19 139.688 212.002 139.592C211.814 139.492 211.6 139.408 211.36 139.34C211.12 139.272 210.876 139.198 210.628 139.118C210.38 139.038 210.136 138.942 209.896 138.83C209.656 138.718 209.442 138.572 209.254 138.392C209.066 138.212 208.914 137.988 208.798 137.72C208.686 137.448 208.63 137.114 208.63 136.718C208.63 136.402 208.692 136.094 208.816 135.794C208.944 135.494 209.128 135.228 209.368 134.996C209.608 134.764 209.904 134.578 210.256 134.438C210.608 134.298 211.012 134.228 211.468 134.228C211.98 134.228 212.452 134.308 212.884 134.468C213.316 134.628 213.684 134.852 213.988 135.14L213.586 135.902ZM217.361 143V136.844H218.267C218.459 136.844 218.585 136.934 218.645 137.114L218.741 137.57C218.849 137.45 218.961 137.34 219.077 137.24C219.197 137.14 219.323 137.054 219.455 136.982C219.591 136.91 219.735 136.854 219.887 136.814C220.043 136.77 220.213 136.748 220.397 136.748C220.785 136.748 221.103 136.854 221.351 137.066C221.603 137.274 221.791 137.552 221.915 137.9C222.011 137.696 222.131 137.522 222.275 137.378C222.419 137.23 222.577 137.11 222.749 137.018C222.921 136.926 223.103 136.858 223.295 136.814C223.491 136.77 223.687 136.748 223.883 136.748C224.223 136.748 224.525 136.8 224.789 136.904C225.053 137.008 225.275 137.16 225.455 137.36C225.635 137.56 225.771 137.804 225.863 138.092C225.959 138.38 226.007 138.71 226.007 139.082V143H224.525V139.082C224.525 138.69 224.439 138.396 224.267 138.2C224.095 138 223.843 137.9 223.511 137.9C223.359 137.9 223.217 137.926 223.085 137.978C222.957 138.03 222.843 138.106 222.743 138.206C222.647 138.302 222.571 138.424 222.515 138.572C222.459 138.72 222.431 138.89 222.431 139.082V143H220.943V139.082C220.943 138.67 220.859 138.37 220.691 138.182C220.527 137.994 220.285 137.9 219.965 137.9C219.749 137.9 219.547 137.954 219.359 138.062C219.175 138.166 219.003 138.31 218.843 138.494V143H217.361ZM232.827 140.372C232.399 140.392 232.039 140.43 231.747 140.486C231.455 140.538 231.221 140.606 231.045 140.69C230.869 140.774 230.743 140.872 230.667 140.984C230.591 141.096 230.553 141.218 230.553 141.35C230.553 141.61 230.629 141.796 230.781 141.908C230.937 142.02 231.139 142.076 231.387 142.076C231.691 142.076 231.953 142.022 232.173 141.914C232.397 141.802 232.615 141.634 232.827 141.41V140.372ZM229.431 137.702C230.139 137.054 230.991 136.73 231.987 136.73C232.347 136.73 232.669 136.79 232.953 136.91C233.237 137.026 233.477 137.19 233.673 137.402C233.869 137.61 234.017 137.86 234.117 138.152C234.221 138.444 234.273 138.764 234.273 139.112V143H233.601C233.461 143 233.353 142.98 233.277 142.94C233.201 142.896 233.141 142.81 233.097 142.682L232.965 142.238C232.809 142.378 232.657 142.502 232.509 142.61C232.361 142.714 232.207 142.802 232.047 142.874C231.887 142.946 231.715 143 231.531 143.036C231.351 143.076 231.151 143.096 230.931 143.096C230.671 143.096 230.431 143.062 230.211 142.994C229.991 142.922 229.801 142.816 229.641 142.676C229.481 142.536 229.357 142.362 229.269 142.154C229.181 141.946 229.137 141.704 229.137 141.428C229.137 141.272 229.163 141.118 229.215 140.966C229.267 140.81 229.351 140.662 229.467 140.522C229.587 140.382 229.741 140.25 229.929 140.126C230.117 140.002 230.347 139.894 230.619 139.802C230.895 139.71 231.215 139.636 231.579 139.58C231.943 139.52 232.359 139.484 232.827 139.472V139.112C232.827 138.7 232.739 138.396 232.563 138.2C232.387 138 232.133 137.9 231.801 137.9C231.561 137.9 231.361 137.928 231.201 137.984C231.045 138.04 230.907 138.104 230.787 138.176C230.667 138.244 230.557 138.306 230.457 138.362C230.361 138.418 230.253 138.446 230.133 138.446C230.029 138.446 229.941 138.42 229.869 138.368C229.797 138.312 229.739 138.248 229.695 138.176L229.431 137.702ZM239.227 137.912C239.419 137.544 239.647 137.256 239.911 137.048C240.175 136.836 240.487 136.73 240.847 136.73C241.131 136.73 241.359 136.792 241.531 136.916L241.435 138.026C241.415 138.098 241.385 138.15 241.345 138.182C241.309 138.21 241.259 138.224 241.195 138.224C241.135 138.224 241.045 138.214 240.925 138.194C240.809 138.174 240.695 138.164 240.583 138.164C240.419 138.164 240.273 138.188 240.145 138.236C240.017 138.284 239.901 138.354 239.797 138.446C239.697 138.534 239.607 138.642 239.527 138.77C239.451 138.898 239.379 139.044 239.311 139.208V143H237.829V136.844H238.699C238.851 136.844 238.957 136.872 239.017 136.928C239.077 136.98 239.117 137.076 239.137 137.216L239.227 137.912ZM246.518 143.096C245.982 143.096 245.57 142.946 245.282 142.646C244.998 142.342 244.856 141.924 244.856 141.392V137.954H244.226C244.146 137.954 244.078 137.928 244.022 137.876C243.966 137.824 243.938 137.746 243.938 137.642V137.054L244.928 136.892L245.24 135.212C245.26 135.132 245.298 135.07 245.354 135.026C245.41 134.982 245.482 134.96 245.57 134.96H246.338V136.898H247.982V137.954H246.338V141.29C246.338 141.482 246.384 141.632 246.476 141.74C246.572 141.848 246.702 141.902 246.866 141.902C246.958 141.902 247.034 141.892 247.094 141.872C247.158 141.848 247.212 141.824 247.256 141.8C247.304 141.776 247.346 141.754 247.382 141.734C247.418 141.71 247.454 141.698 247.49 141.698C247.534 141.698 247.57 141.71 247.598 141.734C247.626 141.754 247.656 141.786 247.688 141.83L248.132 142.55C247.916 142.73 247.668 142.866 247.388 142.958C247.108 143.05 246.818 143.096 246.518 143.096ZM256.76 143V137.03H257.078C257.178 137.03 257.236 137.08 257.252 137.18L257.306 138.044C257.538 137.712 257.804 137.444 258.104 137.24C258.404 137.036 258.742 136.934 259.118 136.934C259.554 136.934 259.902 137.06 260.162 137.312C260.426 137.564 260.604 137.914 260.696 138.362C260.768 138.118 260.868 137.906 260.996 137.726C261.128 137.546 261.278 137.398 261.446 137.282C261.614 137.162 261.796 137.074 261.992 137.018C262.192 136.962 262.396 136.934 262.604 136.934C262.9 136.934 263.166 136.984 263.402 137.084C263.638 137.18 263.838 137.324 264.002 137.516C264.166 137.708 264.292 137.944 264.38 138.224C264.468 138.504 264.512 138.824 264.512 139.184V143H263.942V139.184C263.942 138.6 263.816 138.156 263.564 137.852C263.312 137.544 262.952 137.39 262.484 137.39C262.276 137.39 262.076 137.428 261.884 137.504C261.696 137.58 261.528 137.694 261.38 137.846C261.236 137.994 261.12 138.18 261.032 138.404C260.948 138.628 260.906 138.888 260.906 139.184V143H260.33V139.184C260.33 138.604 260.214 138.16 259.982 137.852C259.754 137.544 259.418 137.39 258.974 137.39C258.65 137.39 258.35 137.486 258.074 137.678C257.798 137.87 257.552 138.136 257.336 138.476V143H256.76ZM271.919 140.114C271.351 140.134 270.861 140.18 270.449 140.252C270.041 140.32 269.703 140.414 269.435 140.534C269.171 140.654 268.975 140.798 268.847 140.966C268.719 141.13 268.655 141.318 268.655 141.53C268.655 141.73 268.687 141.904 268.751 142.052C268.819 142.196 268.907 142.316 269.015 142.412C269.127 142.504 269.255 142.572 269.399 142.616C269.543 142.66 269.693 142.682 269.849 142.682C270.081 142.682 270.293 142.658 270.485 142.61C270.681 142.558 270.861 142.488 271.025 142.4C271.193 142.308 271.349 142.2 271.493 142.076C271.637 141.952 271.779 141.818 271.919 141.674V140.114ZM268.409 137.876C268.721 137.564 269.049 137.328 269.393 137.168C269.737 137.008 270.127 136.928 270.563 136.928C270.883 136.928 271.163 136.98 271.403 137.084C271.643 137.184 271.841 137.33 271.997 137.522C272.157 137.71 272.277 137.94 272.357 138.212C272.437 138.48 272.477 138.78 272.477 139.112V143H272.249C272.129 143 272.055 142.944 272.027 142.832L271.943 142.064C271.779 142.224 271.615 142.368 271.451 142.496C271.291 142.624 271.123 142.732 270.947 142.82C270.771 142.908 270.581 142.976 270.377 143.024C270.173 143.072 269.949 143.096 269.705 143.096C269.501 143.096 269.303 143.066 269.111 143.006C268.919 142.946 268.747 142.854 268.595 142.73C268.447 142.606 268.327 142.448 268.235 142.256C268.147 142.06 268.103 141.826 268.103 141.554C268.103 141.302 268.175 141.068 268.319 140.852C268.463 140.636 268.689 140.448 268.997 140.288C269.305 140.128 269.699 140 270.179 139.904C270.663 139.808 271.243 139.752 271.919 139.736V139.112C271.919 138.56 271.799 138.136 271.559 137.84C271.323 137.54 270.971 137.39 270.503 137.39C270.215 137.39 269.969 137.43 269.765 137.51C269.565 137.59 269.395 137.678 269.255 137.774C269.115 137.87 269.001 137.958 268.913 138.038C268.825 138.118 268.751 138.158 268.691 138.158C268.647 138.158 268.611 138.148 268.583 138.128C268.555 138.108 268.531 138.082 268.511 138.05L268.409 137.876ZM277.095 138.074C277.371 137.73 277.689 137.454 278.049 137.246C278.413 137.038 278.817 136.934 279.261 136.934C279.589 136.934 279.877 136.986 280.125 137.09C280.377 137.194 280.585 137.344 280.749 137.54C280.913 137.736 281.037 137.972 281.121 138.248C281.205 138.524 281.247 138.836 281.247 139.184V143H280.671V139.184C280.671 138.624 280.543 138.186 280.287 137.87C280.031 137.55 279.641 137.39 279.117 137.39C278.729 137.39 278.365 137.49 278.025 137.69C277.689 137.886 277.389 138.16 277.125 138.512V143H276.549V137.03H276.867C276.967 137.03 277.025 137.08 277.041 137.18L277.095 138.074ZM289.939 137.03V143H289.621C289.521 143 289.463 142.948 289.447 142.844L289.393 141.956C289.117 142.3 288.797 142.576 288.433 142.784C288.073 142.992 287.671 143.096 287.227 143.096C286.895 143.096 286.605 143.044 286.357 142.94C286.109 142.836 285.903 142.686 285.739 142.49C285.575 142.294 285.451 142.058 285.367 141.782C285.283 141.506 285.241 141.194 285.241 140.846V137.03H285.817V140.846C285.817 141.406 285.945 141.846 286.201 142.166C286.457 142.482 286.847 142.64 287.371 142.64C287.759 142.64 288.121 142.542 288.457 142.346C288.797 142.146 289.099 141.87 289.363 141.518V137.03H289.939ZM294.418 143V137.654L293.578 137.6C293.466 137.588 293.41 137.538 293.41 137.45V137.216H294.418V136.46C294.418 136.12 294.462 135.822 294.55 135.566C294.638 135.306 294.762 135.09 294.922 134.918C295.082 134.746 295.274 134.618 295.498 134.534C295.722 134.446 295.97 134.402 296.242 134.402C296.366 134.402 296.49 134.414 296.614 134.438C296.742 134.458 296.856 134.488 296.956 134.528L296.938 134.804C296.93 134.84 296.912 134.864 296.884 134.876C296.86 134.884 296.824 134.888 296.776 134.888C296.728 134.884 296.666 134.878 296.59 134.87C296.514 134.858 296.426 134.852 296.326 134.852C296.13 134.852 295.948 134.882 295.78 134.942C295.616 134.998 295.474 135.09 295.354 135.218C295.234 135.346 295.14 135.514 295.072 135.722C295.008 135.926 294.976 136.178 294.976 136.478V137.216H296.914V137.642H294.994V143H294.418ZM303.598 140.114C303.03 140.134 302.54 140.18 302.128 140.252C301.72 140.32 301.382 140.414 301.114 140.534C300.85 140.654 300.654 140.798 300.526 140.966C300.398 141.13 300.334 141.318 300.334 141.53C300.334 141.73 300.366 141.904 300.43 142.052C300.498 142.196 300.586 142.316 300.694 142.412C300.806 142.504 300.934 142.572 301.078 142.616C301.222 142.66 301.372 142.682 301.528 142.682C301.76 142.682 301.972 142.658 302.164 142.61C302.36 142.558 302.54 142.488 302.704 142.4C302.872 142.308 303.028 142.2 303.172 142.076C303.316 141.952 303.458 141.818 303.598 141.674V140.114ZM300.088 137.876C300.4 137.564 300.728 137.328 301.072 137.168C301.416 137.008 301.806 136.928 302.242 136.928C302.562 136.928 302.842 136.98 303.082 137.084C303.322 137.184 303.52 137.33 303.676 137.522C303.836 137.71 303.956 137.94 304.036 138.212C304.116 138.48 304.156 138.78 304.156 139.112V143H303.928C303.808 143 303.734 142.944 303.706 142.832L303.622 142.064C303.458 142.224 303.294 142.368 303.13 142.496C302.97 142.624 302.802 142.732 302.626 142.82C302.45 142.908 302.26 142.976 302.056 143.024C301.852 143.072 301.628 143.096 301.384 143.096C301.18 143.096 300.982 143.066 300.79 143.006C300.598 142.946 300.426 142.854 300.274 142.73C300.126 142.606 300.006 142.448 299.914 142.256C299.826 142.06 299.782 141.826 299.782 141.554C299.782 141.302 299.854 141.068 299.998 140.852C300.142 140.636 300.368 140.448 300.676 140.288C300.984 140.128 301.378 140 301.858 139.904C302.342 139.808 302.922 139.752 303.598 139.736V139.112C303.598 138.56 303.478 138.136 303.238 137.84C303.002 137.54 302.65 137.39 302.182 137.39C301.894 137.39 301.648 137.43 301.444 137.51C301.244 137.59 301.074 137.678 300.934 137.774C300.794 137.87 300.68 137.958 300.592 138.038C300.504 138.118 300.43 138.158 300.37 138.158C300.326 138.158 300.29 138.148 300.262 138.128C300.234 138.108 300.21 138.082 300.19 138.05L300.088 137.876ZM312.242 137.828C312.222 137.848 312.202 137.866 312.182 137.882C312.166 137.894 312.142 137.9 312.11 137.9C312.07 137.9 312.016 137.874 311.948 137.822C311.88 137.766 311.788 137.706 311.672 137.642C311.556 137.578 311.41 137.52 311.234 137.468C311.062 137.412 310.852 137.384 310.604 137.384C310.26 137.384 309.954 137.446 309.686 137.57C309.422 137.69 309.198 137.864 309.014 138.092C308.83 138.32 308.69 138.596 308.594 138.92C308.502 139.244 308.456 139.608 308.456 140.012C308.456 140.432 308.504 140.804 308.6 141.128C308.7 141.452 308.84 141.726 309.02 141.95C309.2 142.17 309.418 142.338 309.674 142.454C309.93 142.57 310.214 142.628 310.526 142.628C310.814 142.628 311.054 142.594 311.246 142.526C311.442 142.458 311.602 142.384 311.726 142.304C311.854 142.224 311.954 142.15 312.026 142.082C312.098 142.014 312.158 141.98 312.206 141.98C312.254 141.98 312.294 142 312.326 142.04L312.476 142.232C312.384 142.352 312.268 142.464 312.128 142.568C311.988 142.672 311.83 142.762 311.654 142.838C311.478 142.914 311.286 142.972 311.078 143.012C310.874 143.056 310.66 143.078 310.436 143.078C310.056 143.078 309.708 143.01 309.392 142.874C309.08 142.734 308.81 142.534 308.582 142.274C308.358 142.01 308.182 141.688 308.054 141.308C307.93 140.928 307.868 140.496 307.868 140.012C307.868 139.556 307.928 139.14 308.048 138.764C308.168 138.388 308.344 138.064 308.576 137.792C308.808 137.52 309.09 137.31 309.422 137.162C309.758 137.01 310.142 136.934 310.574 136.934C310.962 136.934 311.306 136.996 311.606 137.12C311.906 137.244 312.168 137.412 312.392 137.624L312.242 137.828ZM317.68 143.096C317.276 143.096 316.96 142.984 316.732 142.76C316.508 142.536 316.396 142.19 316.396 141.722V137.642H315.538C315.494 137.642 315.458 137.63 315.43 137.606C315.402 137.582 315.388 137.548 315.388 137.504V137.282L316.408 137.21L316.552 135.074C316.56 135.038 316.576 135.006 316.6 134.978C316.624 134.95 316.658 134.936 316.702 134.936H316.972V137.216H318.856V137.642H316.972V141.692C316.972 141.856 316.992 141.998 317.032 142.118C317.076 142.234 317.134 142.33 317.206 142.406C317.282 142.482 317.37 142.538 317.47 142.574C317.57 142.61 317.678 142.628 317.794 142.628C317.938 142.628 318.062 142.608 318.166 142.568C318.27 142.524 318.36 142.478 318.436 142.43C318.512 142.378 318.574 142.332 318.622 142.292C318.67 142.248 318.708 142.226 318.736 142.226C318.768 142.226 318.8 142.246 318.832 142.286L318.988 142.538C318.836 142.706 318.642 142.842 318.406 142.946C318.174 143.046 317.932 143.096 317.68 143.096ZM326.954 137.03V143H326.636C326.536 143 326.478 142.948 326.462 142.844L326.408 141.956C326.132 142.3 325.812 142.576 325.448 142.784C325.088 142.992 324.686 143.096 324.242 143.096C323.91 143.096 323.62 143.044 323.372 142.94C323.124 142.836 322.918 142.686 322.754 142.49C322.59 142.294 322.466 142.058 322.382 141.782C322.298 141.506 322.256 141.194 322.256 140.846V137.03H322.832V140.846C322.832 141.406 322.96 141.846 323.216 142.166C323.472 142.482 323.862 142.64 324.386 142.64C324.774 142.64 325.136 142.542 325.472 142.346C325.812 142.146 326.114 141.87 326.378 141.518V137.03H326.954ZM331.625 138.47C331.717 138.226 331.821 138.01 331.937 137.822C332.057 137.63 332.193 137.468 332.345 137.336C332.501 137.204 332.673 137.104 332.861 137.036C333.053 136.964 333.265 136.928 333.497 136.928C333.621 136.928 333.743 136.94 333.863 136.964C333.983 136.984 334.089 137.022 334.181 137.078L334.133 137.474C334.113 137.538 334.075 137.57 334.019 137.57C333.971 137.57 333.897 137.556 333.797 137.528C333.701 137.5 333.573 137.486 333.413 137.486C333.181 137.486 332.975 137.522 332.795 137.594C332.619 137.662 332.459 137.766 332.315 137.906C332.175 138.046 332.051 138.22 331.943 138.428C331.839 138.632 331.743 138.868 331.655 139.136V143H331.079V137.03H331.385C331.453 137.03 331.501 137.044 331.529 137.072C331.557 137.1 331.575 137.148 331.583 137.216L331.625 138.47ZM338.117 137.03V143H337.547V137.03H338.117ZM338.363 134.972C338.363 135.044 338.347 135.112 338.315 135.176C338.287 135.236 338.249 135.29 338.201 135.338C338.153 135.386 338.097 135.424 338.033 135.452C337.969 135.48 337.901 135.494 337.829 135.494C337.757 135.494 337.689 135.48 337.625 135.452C337.561 135.424 337.505 135.386 337.457 135.338C337.409 135.29 337.371 135.236 337.343 135.176C337.315 135.112 337.301 135.044 337.301 134.972C337.301 134.9 337.315 134.832 337.343 134.768C337.371 134.7 337.409 134.642 337.457 134.594C337.505 134.546 337.561 134.508 337.625 134.48C337.689 134.452 337.757 134.438 337.829 134.438C337.901 134.438 337.969 134.452 338.033 134.48C338.097 134.508 338.153 134.546 338.201 134.594C338.249 134.642 338.287 134.7 338.315 134.768C338.347 134.832 338.363 134.9 338.363 134.972ZM342.859 138.074C343.135 137.73 343.453 137.454 343.813 137.246C344.177 137.038 344.581 136.934 345.025 136.934C345.353 136.934 345.641 136.986 345.889 137.09C346.141 137.194 346.349 137.344 346.513 137.54C346.677 137.736 346.801 137.972 346.885 138.248C346.969 138.524 347.011 138.836 347.011 139.184V143H346.435V139.184C346.435 138.624 346.307 138.186 346.051 137.87C345.795 137.55 345.405 137.39 344.881 137.39C344.493 137.39 344.129 137.49 343.789 137.69C343.453 137.886 343.153 138.16 342.889 138.512V143H342.313V137.03H342.631C342.731 137.03 342.789 137.08 342.805 137.18L342.859 138.074ZM353.021 140.36C353.277 140.36 353.505 140.324 353.705 140.252C353.905 140.176 354.073 140.072 354.209 139.94C354.345 139.808 354.449 139.65 354.521 139.466C354.593 139.282 354.629 139.078 354.629 138.854C354.629 138.63 354.591 138.426 354.515 138.242C354.443 138.054 354.337 137.894 354.197 137.762C354.061 137.63 353.893 137.528 353.693 137.456C353.497 137.384 353.273 137.348 353.021 137.348C352.769 137.348 352.543 137.384 352.343 137.456C352.147 137.528 351.979 137.63 351.839 137.762C351.703 137.894 351.599 138.054 351.527 138.242C351.455 138.426 351.419 138.63 351.419 138.854C351.419 139.078 351.455 139.282 351.527 139.466C351.599 139.65 351.703 139.808 351.839 139.94C351.979 140.072 352.147 140.176 352.343 140.252C352.543 140.324 352.769 140.36 353.021 140.36ZM355.253 143.402C355.253 143.214 355.203 143.064 355.103 142.952C355.007 142.836 354.877 142.746 354.713 142.682C354.549 142.618 354.359 142.574 354.143 142.55C353.931 142.522 353.707 142.502 353.471 142.49C353.239 142.478 353.005 142.466 352.769 142.454C352.533 142.442 352.311 142.418 352.103 142.382C351.951 142.442 351.811 142.512 351.683 142.592C351.555 142.668 351.445 142.756 351.353 142.856C351.261 142.956 351.189 143.064 351.137 143.18C351.085 143.3 351.059 143.428 351.059 143.564C351.059 143.74 351.103 143.902 351.191 144.05C351.283 144.202 351.415 144.332 351.587 144.44C351.763 144.552 351.977 144.64 352.229 144.704C352.481 144.768 352.771 144.8 353.099 144.8C353.403 144.8 353.685 144.766 353.945 144.698C354.209 144.63 354.437 144.534 354.629 144.41C354.825 144.286 354.977 144.138 355.085 143.966C355.197 143.794 355.253 143.606 355.253 143.402ZM355.877 137.294V137.492C355.877 137.58 355.821 137.634 355.709 137.654L354.797 137.72C354.909 137.872 354.995 138.042 355.055 138.23C355.115 138.418 355.145 138.622 355.145 138.842C355.145 139.13 355.093 139.392 354.989 139.628C354.889 139.86 354.745 140.06 354.557 140.228C354.373 140.392 354.149 140.52 353.885 140.612C353.625 140.704 353.337 140.75 353.021 140.75C352.681 140.75 352.371 140.698 352.091 140.594C351.923 140.69 351.789 140.804 351.689 140.936C351.593 141.064 351.545 141.192 351.545 141.32C351.545 141.492 351.605 141.624 351.725 141.716C351.849 141.808 352.009 141.876 352.205 141.92C352.405 141.96 352.631 141.986 352.883 141.998C353.139 142.01 353.399 142.024 353.663 142.04C353.927 142.052 354.185 142.076 354.437 142.112C354.693 142.148 354.919 142.212 355.115 142.304C355.315 142.392 355.475 142.518 355.595 142.682C355.719 142.842 355.781 143.056 355.781 143.324C355.781 143.572 355.719 143.81 355.595 144.038C355.471 144.266 355.291 144.468 355.055 144.644C354.823 144.82 354.541 144.96 354.209 145.064C353.877 145.172 353.505 145.226 353.093 145.226C352.673 145.226 352.305 145.182 351.989 145.094C351.673 145.01 351.407 144.894 351.191 144.746C350.979 144.602 350.819 144.434 350.711 144.242C350.603 144.05 350.549 143.846 350.549 143.63C350.549 143.314 350.653 143.044 350.861 142.82C351.069 142.592 351.353 142.414 351.713 142.286C351.513 142.218 351.351 142.12 351.227 141.992C351.107 141.86 351.047 141.682 351.047 141.458C351.047 141.374 351.063 141.286 351.095 141.194C351.127 141.102 351.175 141.012 351.239 140.924C351.303 140.832 351.381 140.746 351.473 140.666C351.565 140.586 351.669 140.514 351.785 140.45C351.501 140.286 351.279 140.068 351.119 139.796C350.963 139.524 350.885 139.206 350.885 138.842C350.885 138.554 350.935 138.294 351.035 138.062C351.139 137.826 351.285 137.624 351.473 137.456C351.661 137.288 351.885 137.158 352.145 137.066C352.409 136.974 352.701 136.928 353.021 136.928C353.285 136.928 353.527 136.96 353.747 137.024C353.971 137.088 354.171 137.178 354.347 137.294H355.877Z" fill="white"/>
</svg>
